HIERARCHY
ROOT Hips
{
  OFFSET -2.62055 105.893 74.1792
  CHANNELS 6 Xposition Yposition Zposition Zrotation Xrotation Yrotation
  JOINT RightUpLeg
  {
    OFFSET -8.9458 -8.66707 0.101652
    CHANNELS 3 Zrotation Xrotation Yrotation
    JOINT RightLeg
    {
      OFFSET 0 -44.4227 1.3727
      CHANNELS 3 Zrotation Xrotation Yrotation
      JOINT RightFoot
      {
        OFFSET 0.253549 -42.0924 -1.46059
        CHANNELS 3 Zrotation Xrotation Yrotation
        JOINT RightToes
        {
          OFFSET 0.04 -4.41509 8.4991
          CHANNELS 3 Zrotation Xrotation Yrotation
          End Site
          {
            OFFSET -0.08 -0.137448 9.77979
          }
        }
      }
    }
  }
  JOINT Spine
  {
    OFFSET 0 11.8905 0
    CHANNELS 3 Zrotation Xrotation Yrotation
    JOINT Spine1
    {
      OFFSET 0 25.6574 0.127663
      CHANNELS 3 Zrotation Xrotation Yrotation
      JOINT HEad
      {
        OFFSET 0 8.73416 0.011341
        CHANNELS 3 Zrotation Xrotation Yrotation
        End Site
        {
          OFFSET -0.29 12.7742 2.51395
        }
      }
      JOINT LeftShoulder1
      {
        OFFSET 8.99 -0.362252 -0.22
        CHANNELS 3 Zrotation Xrotation Yrotation
        JOINT LeftArm
        {
          OFFSET 10.2827 -0.00337999 0.322123
          CHANNELS 3 Zrotation Xrotation Yrotation
          JOINT LeftForeArm
          {
            OFFSET 26.2597 0.099144 -1.42434
            CHANNELS 3 Zrotation Xrotation Yrotation
            JOINT LeftHand
            {
              OFFSET 22.0902 0.085362 1.02216
              CHANNELS 3 Zrotation Xrotation Yrotation
              End Site
              {
                OFFSET 13.419 -0.6 1.50291
              }
            }
          }
        }
      }
      JOINT RightShoulder
      {
        OFFSET -8.99 -0.362252 -0.22
        CHANNELS 3 Zrotation Xrotation Yrotation
        JOINT RightArm
        {
          OFFSET -10.2827 -0.00338 0.322123
          CHANNELS 3 Zrotation Xrotation Yrotation
          JOINT RightForeArm
          {
            OFFSET -26.364 0.099144 -1.42434
            CHANNELS 3 Zrotation Xrotation Yrotation
            JOINT RightHand
            {
              OFFSET -22.0324 0.085362 1.02216
              CHANNELS 3 Zrotation Xrotation Yrotation
              End Site
              {
                OFFSET -13.3284 -0.6 1.50291
              }
            }
          }
        }
      }
    }
  }
  JOINT LeftUpLeg
  {
    OFFSET 8.9458 -8.66707 0.101652
    CHANNELS 3 Zrotation Xrotation Yrotation
    JOINT LeftLeg
    {
      OFFSET 0 -44.4227 1.3727
      CHANNELS 3 Zrotation Xrotation Yrotation
      JOINT LeftFoot
      {
        OFFSET -0.253549 -42.0924 -1.46059
        CHANNELS 3 Zrotation Xrotation Yrotation
        JOINT LeftToes
        {
          OFFSET -0.04 -4.41509 8.4991
          CHANNELS 3 Zrotation Xrotation Yrotation
          End Site
          {
            OFFSET 0.08 -0.047448 9.77979
          }
        }
      }
    }
  }
}
MOTION
Frames:	16
Frame Time:	0.0333333
-1.01748 111.824 56.0229 1.97885 3.27967 115.595 -19.3089 0.921153 -18.3341 -3.0838 22.2642 20.1023 17.6887 9.67897 -3.27005 3.21755e-015 -3.18055e-015 0.662642 2.12298 0.519412 3.35959 -4.75737 14.9575 4.85076 -9.39336 -14.175 65.3323 -17.5609 2.28007 -4.38748 -49.7602 20.329 -1.91766 18.0713 12.4327 -68.1196 7.09353 1.43587 1.99545 26.2414 1.92612 9.12864 46.8702 10.5076 -2.34732 1.95789 1.6755 123.997 -7.7881 0.781239 -4.86637 11.4881 -7.422 15.8243 2.99831 24.1492 -9.00203 -9.21136 14.4106 2.19305 -1.59028e-015 1.59028e-015 -1.47469e-008 
-1.16756 109.853 56.6414 2.31773 3.58825 115.168 -19.8396 0.103915 -16.4918 -3.65019 25.7816 20.6921 17.1962 4.71847 -2.50608 6.89731e-017 -5.96354e-015 0.662642 2.24882 2.09506 3.46809 -5.29635 14.439 5.03318 -9.43291 -14.9668 65.0114 -16.248 2.14691 -4.37709 -49.7887 21.4989 -1.96193 19.9154 13.1452 -69.3121 7.94891 1.61348 2.02273 25.0099 1.81404 8.95674 43.4639 8.61073 0.60532 4.47985 3.36817 125.472 -7.38792 0.707439 -4.31793 11.5728 -8.01168 16.1381 3.63235 28.77 -9.94873 -9.82841 8.80919 1.85894 -1.59028e-015 2.38542e-015 -1.47469e-008 
-1.42142 106.407 57.6231 2.16643 3.89639 114.789 -20.9117 -1.70374 -16.1748 -4.68704 32.3617 22.9041 16.8548 -7.0222 -0.874741 -2.80156e-015 1.59028e-015 0.662642 0.903422 3.38157 3.70912 -4.58097 13.846 4.8345 -9.54703 -16.1533 64.8029 -16.4034 2.18679 -4.48192 -48.1141 21.7337 -3.27428 17.5758 11.8904 -68.538 8.71872 1.75279 1.74589 24.3394 1.73782 8.80698 38.169 3.9426 5.96651 8.09211 5.52823 124.583 -8.82709 0.844017 -4.1551 12.2497 -10.4926 17.1869 5.12805 36.1386 -9.34841 -10.1728 -2.18339 0.951656 -2.38542e-015 -6.36111e-015 -1.47469e-008 
-1.98379 102.71 58.9406 1.85929 3.89999 115.609 -21.7435 -4.01598 -17.485 -6.085 39.7238 25.603 15.7973 -18.9173 0.696431 6.26857e-016 -2.6339e-015 0.662642 -0.654365 3.9025 3.34066 -2.74575 15.2903 3.82263 -10.375 -20.0285 64.9597 -18.3134 2.3138 -4.22674 -42.3782 22.1429 -9.16469 14.0205 11.019 -64.4816 9.91412 2.01238 1.9376 25.3086 1.745 8.69375 32.3556 -3.0642 14.6048 10.7164 6.19577 120.593 -11.3917 1.20769 -5.26421 14.1317 -15.2937 17.3786 6.89764 45.0941 -11.9709 -11.5108 -10.2918 0.230777 -7.95139e-016 1.59028e-015 -1.47469e-008 
-2.42723 100.68 60.0468 2.04963 3.86401 116.506 -22.0202 -5.28068 -18.7576 -6.99721 43.9255 27.3895 14.3321 -23.7508 1.17862 -2.03208e-015 -4.84538e-016 0.662642 -0.233167 4.14564 2.6426 -2.92635 17.5426 3.26047 -10.5156 -23.2295 65.2986 -20.0686 2.3967 -3.88603 -37.1783 21.0774 -17.4994 15.2154 16.3833 -55.6571 11.6332 2.4018 2.33133 27.7708 1.95456 8.99431 31.8698 -7.74566 23.0057 9.02817 3.95134 113.622 -15.1485 1.91757 -7.5121 15.7496 -17.8305 17.1844 7.81555 49.3696 -14.6681 -12.5422 -12.5958 -0.0244529 2.04654e-025 7.95139e-016 -1.47469e-008 
-2.18126 101.692 60.5226 2.35231 4.22219 116.193 -21.9913 -4.17782 -18.83 -6.35835 41.9267 27.8021 14.9198 -21.6242 0.980666 -1.72254e-015 2.83268e-015 0.662642 0.928399 3.9139 2.66107 -4.91112 18.1751 3.94697 -10.0111 -21.752 65.5587 -19.9492 2.40724 -3.97 -39.2617 20.0474 -21.5554 13.6968 21.6594 -44.8902 18.075 4.056 4.10516 28.9185 2.12669 9.3347 37.0501 -5.18173 25.1925 6.83993 2.31426 108.082 -24.3955 3.5798 -9.51429 15.0569 -15.2045 16.7662 6.87826 45.3205 -12.7281 -13.0114 -11.8393 0.0582954 4.09309e-025 1.59028e-015 -1.47469e-008 
-1.5577 105.326 60.4565 2.21362 4.43447 115.708 -21.3551 -2.12697 -18.3874 -4.87245 35.3201 26.4553 17.3213 -12.9257 -0.049741 -1.13017e-015 3.18055e-015 0.662642 1.26764 3.12993 3.19935 -5.16062 17.2771 4.6299 -10.5036 -18.1902 65.7389 -19.9359 2.44353 -4.1107 -42.8795 23.0548 -20.4177 6.27878 13.5387 -37.4605 24.2245 5.51603 4.32322 28.8386 2.1511 9.4157 41.0766 1.38396 20.329 8.63685 2.77296 107.889 -31.2266 4.63057 -9.44657 12.9346 -11.2218 15.3547 5.28334 36.3711 -8.69303 -12.4801 -3.79863 0.953427 2.38542e-015 -1.59028e-015 -1.47469e-008 
-1.09365 109.735 60.2962 1.76666 4.1547 115.627 -19.8573 -0.861441 -17.9234 -3.6087 27.2795 23.2642 19.4046 1.75117 -2.33011 -4.82663e-016 7.35503e-015 0.662642 1.47603 2.30447 3.45118 -4.51336 15.9021 4.807 -11.0753 -15.6569 65.9941 -21.2313 2.54164 -4.00586 -43.91 26.1432 -16.2502 1.93604 4.88414 -37.6076 18.4832 3.88435 2.53758 29.337 2.19102 9.45665 41.6875 7.73614 12.9739 9.05931 3.531 111.525 -23.7848 3.33437 -8.83201 11.356 -8.41368 14.6659 3.84801 25.9588 -4.59516 -10.298 12.3898 2.25317 -8.18617e-025 -3.18055e-015 -1.47469e-008 
-0.824771 112.721 60.2337 1.29325 3.79304 115.505 -18.4728 -0.275924 -17.4982 -2.8642 21.0992 20.2998 19.9277 13.1409 -4.21905 7.35415e-016 5.1684e-015 0.662642 1.79442 1.58111 3.44817 -4.71134 14.5431 4.89665 -10.103 -13.9592 66.0791 -21.4935 2.5763 -4.03817 -46.2611 23.8707 -10.2826 4.18278 7.79299 -41.9616 8.40462 1.63509 0.901857 29.0455 2.16548 9.42762 42.7496 12.6977 7.36433 5.73267 2.79195 115.03 -9.50466 1.1102 -6.5411 10.4714 -6.1269 15.8239 2.66924 17.4388 -2.0756 -7.75341 22.8286 2.4568 -3.18055e-015 3.18055e-015 -1.47469e-008 
-0.724167 113.851 60.3064 1.01923 3.80105 115.768 -17.9094 -0.213541 -16.9041 -2.67364 19.5807 19.618 18.2185 14.3517 -4.03898 2.06919e-017 -1.78906e-015 0.662642 1.43722 0.978924 3.29805 -4.77615 14.2273 4.75037 -8.75529 -13.6418 65.6023 -19.4781 2.45688 -4.33347 -49.4661 22.8106 -6.00953 7.29937 10.6636 -47.2328 8.19512 1.55924 0.46279 26.6017 1.93044 9.08792 45.2827 16.5918 5.39892 4.4754 2.52882 117.587 -1.62164 0.113383 -3.77819 9.83025 -5.69882 16.013 2.03684 15.9618 -4.18542 -7.42829 21.7617 2.27826 4.77083e-015 -3.18055e-015 -1.47469e-008 
-0.9049 113.609 60.4877 1.28702 4.00483 116.544 -17.6297 -0.0810627 -15.6835 -2.71991 20.3544 20.3704 16.6858 11.5922 -3.33219 3.16237e-015 1.59028e-015 0.662642 1.21178 1.07518 2.81724 -4.63619 15.1049 4.28297 -8.4481 -14.9551 65.0259 -17.248 2.29965 -4.59926 -50.0889 24.9057 -4.91142 7.83845 9.65215 -51.9904 11.6315 2.37264 1.99611 24.1904 1.67422 8.61976 45.457 18.2575 7.31671 7.1421 4.13888 119.93 -1.33213 0.082916 -3.54003 9.55092 -6.42013 14.8926 2.1225 18.2041 -8.72825 -9.0494 20.2284 2.60547 1.59028e-015 3.18055e-015 -1.47469e-008 
-1.16382 111.747 60.7062 1.84718 4.2486 116.908 -17.7845 -0.281168 -14.6374 -3.09784 23.3324 21.549 16.0342 6.49569 -2.55929 -1.58119e-015 -7.95139e-016 0.662642 1.29821 2.04796 2.51331 -4.86036 15.3769 4.03944 -8.49014 -15.5022 64.4121 -15.7263 2.22251 -4.93718 -49.2598 25.0012 -4.90875 10.3602 10.9215 -56.1467 11.2307 2.37482 2.90289 22.9478 1.53929 8.33759 43.4663 15.9445 10.9059 9.69171 5.721 121.061 -3.3964 0.294634 -4.20466 9.79884 -7.33616 13.9721 2.68382 22.6708 -10.1225 -10.1057 16.2376 2.54312 -1.59028e-015 3.18055e-015 -1.47469e-008 
-1.39092 108.043 61.0824 2.24029 4.52179 116.631 -18.7972 -1.57173 -14.7842 -4.12101 30.2739 23.668 15.1158 -5.33425 -1.00827 -1.63637e-015 3.97569e-015 0.662642 0.357758 3.30292 2.85929 -4.22937 14.7433 4.00622 -8.52243 -15.2156 63.3672 -14.6527 2.18532 -5.27494 -48.3642 24.7819 -5.69023 10.8986 10.6228 -58.3939 11.3484 2.34461 2.32929 21.8227 1.43249 8.11402 40.7083 9.9049 15.1269 11.7242 6.7166 120.605 -4.37373 0.413032 -4.8743 10.7393 -8.96208 14.6884 3.92097 30.8052 -10.5056 -11.076 2.64816 1.4749 0 0 -1.47469e-008 
-1.84956 103.668 61.6801 2.72056 4.72258 116.335 -19.9067 -3.39422 -15.3583 -5.53662 38.3264 26.6632 13.7152 -18.8005 0.53564 6.8947e-016 5.46658e-016 0.662642 -1.33875 4.19772 3.00399 -2.21401 15.5779 3.31526 -9.33025 -17.2679 63.1573 -15.6419 2.21643 -4.94796 -43.5986 25.208 -9.60045 8.03548 7.93212 -58.3896 11.3332 2.33926 2.29665 21.3364 1.3344 7.82656 36.8435 2.3605 23.091 13.9969 6.85127 117.024 -6.42133 0.692877 -6.11059 12.1359 -11.2447 15.5333 5.41353 39.5483 -12.4934 -12.4549 -11.3891 0.108345 -7.95139e-016 4.77083e-015 -1.47469e-008 
-2.31222 101.019 62.1674 3.37695 4.92199 116.156 -20.2885 -4.46301 -15.422 -6.57692 42.9623 28.1916 12.2299 -25.4329 1.10205 4.37812e-016 8.19987e-016 0.662642 -2.12721 4.377 2.38245 -1.10031 17.9964 2.22062 -10.0085 -20.5677 64.6003 -18.691 2.37212 -4.30797 -38.0738 21.0873 -14.7291 11.4828 12.6978 -54.7035 10.4804 2.16104 2.30403 22.8549 1.42228 7.94895 36.0036 -1.25226 32.3609 13.1345 4.68557 110.488 -12.8983 1.66827 -8.0258 12.6885 -12.4517 15.3176 6.51962 44.1133 -12.8825 -12.84 -17.7084 -0.628338 7.95139e-016 0 -1.47469e-008 
-2.20228 101.704 62.2785 3.73354 5.07012 115.854 -19.9871 -3.53025 -14.991 -6.19921 41.3229 27.6472 12.6994 -23.9526 1.0028 2.26577e-015 1.76421e-015 0.662642 -1.31815 3.77755 2.02233 -2.51726 19.2567 2.36678 -9.40301 -20.5778 65.5091 -20.252 2.45776 -4.04769 -39.5688 15.2461 -17.9448 14.2845 21.0272 -46.787 16.9428 3.72247 3.56137 25.3722 1.69507 8.52742 39.7164 1.57952 33.7045 11.6987 3.27716 106.403 -23.7219 3.43454 -9.37153 12.1246 -10.8343 14.5385 6.19001 41.7111 -11.0152 -13.0018 -16.69 -0.513982 3.97569e-016 7.95139e-016 -1.47469e-008 
